<svg xmlns="http://www.w3.org/2000/svg"><symbol id="icon-archive-box-arrow-down-3507073b7b450ca7317a7f1029f934958de3d6f015414ebbab76369a41fe36d05aa4e01a569fb9dec4f80126f04a8f5e42bd5332bad46c183edc8af9b039739d" fill="none" stroke="currentColor" stroke-width="1.5" viewBox="0 0 24 24"><path stroke-linecap="round" stroke-linejoin="round" d="m20.25 7.5-.625 10.632a2.25 2.25 0 0 1-2.247 2.118H6.622a2.25 2.25 0 0 1-2.247-2.118L3.75 7.5m8.25 3v6.75m0 0-3-3m3 3 3-3M3.375 7.5h17.25c.621 0 1.125-.504 1.125-1.125v-1.5c0-.621-.504-1.125-1.125-1.125H3.375c-.621 0-1.125.504-1.125 1.125v1.5c0 .621.504 1.125 1.125 1.125"/></symbol><symbol id="icon-beaker-77e9be611f3f8afc58a91cf19f97655dbf20a97be01ee1c3f293a7d7f29982cbc4931aa41c112b00342eaa1e79b9119c597afce574c084e3f05f7aeff6af8249" fill="none" stroke="currentColor" stroke-width="1.5" viewBox="0 0 24 24"><path stroke-linecap="round" stroke-linejoin="round" d="M9.75 3.104v5.714a2.25 2.25 0 0 1-.659 1.591L5 14.5M9.75 3.104q-.377.034-.75.082m.75-.082a24.3 24.3 0 0 1 4.5 0m0 0v5.714c0 .597.237 1.17.659 1.591L19.8 15.3M14.25 3.104q.377.034.75.082M19.8 15.3l-1.57.393A9.07 9.07 0 0 1 12 15a9.07 9.07 0 0 0-6.23-.693L5 14.5m14.8.8 1.402 1.402c1.232 1.232.65 3.318-1.067 3.611A48.3 48.3 0 0 1 12 21a48 48 0 0 1-8.135-.687c-1.718-.293-2.3-2.379-1.067-3.61L5 14.5"/></symbol><symbol id="icon-eye-7a5b5b5ba730a47049cb9682717859179d8c6fa5bce76ae4d096e879da89a7783fefba9a62843ce5862b318602e60fa8cdc0ce9a1f9398f9ac58c59784094ca2" fill="none" stroke="currentColor" stroke-linecap="round" stroke-linejoin="round" stroke-width="2" viewBox="0 0 24 24"><path d="M2.062 12.348a1 1 0 0 1 0-.696 10.75 10.75 0 0 1 19.876 0 1 1 0 0 1 0 .696 10.75 10.75 0 0 1-19.876 0"/><circle cx="12" cy="12" r="3"/></symbol><symbol id="icon-house-0484c8b7a404a270580d71b7e99a147727484c239f84eecd6fdf691494bfd166e0e0901c874ee5b7324a3b021657685c363fb75aab2a63bb37622fb5cef59cba" fill="none" stroke="currentColor" stroke-linecap="round" stroke-linejoin="round" stroke-width="2" viewBox="0 0 24 24"><path d="M15 21v-8a1 1 0 0 0-1-1h-4a1 1 0 0 0-1 1v8"/><path d="M3 10a2 2 0 0 1 .709-1.528l7-5.999a2 2 0 0 1 2.582 0l7 5.999A2 2 0 0 1 21 10v9a2 2 0 0 1-2 2H5a2 2 0 0 1-2-2z"/></symbol></svg>